<svg width="2147" height="1121" viewBox="0 0 2147 1121" fill="none" xmlns="http://www.w3.org/2000/svg">
<path d="M1663.06 591.678H1719.49C1745.2 591.678 1763.85 595.357 1775.42 602.716C1787.08 609.992 1792.91 621.609 1792.91 637.566C1792.91 648.398 1790.35 657.286 1785.22 664.231C1780.18 671.177 1773.44 675.352 1765.01 676.758V677.998C1776.5 680.561 1784.77 685.357 1789.81 692.385C1794.94 699.413 1797.5 708.756 1797.5 720.414C1797.5 736.951 1791.51 749.849 1779.52 759.109C1767.61 768.37 1751.4 773 1730.9 773H1663.06V591.678ZM1701.51 663.487H1723.83C1734.25 663.487 1741.77 661.875 1746.4 658.65C1751.12 655.426 1753.47 650.093 1753.47 642.651C1753.47 635.706 1750.91 630.745 1745.78 627.769C1740.74 624.709 1732.72 623.18 1721.72 623.18H1701.51V663.487ZM1701.51 693.997V741.25H1726.56C1737.14 741.25 1744.96 739.224 1750 735.173C1755.04 731.121 1757.56 724.92 1757.56 716.569C1757.56 701.521 1746.82 693.997 1725.32 693.997H1701.51Z" fill="white"/>
<path d="M1625.11 773H1520.68V591.678H1625.11V623.18H1559.13V662.991H1620.52V694.493H1559.13V741.25H1625.11V773Z" fill="white"/>
<path d="M1451.72 773H1407.94L1383.39 677.75C1382.48 674.36 1380.91 667.373 1378.67 656.79C1376.52 646.124 1375.28 638.972 1374.95 635.334C1374.46 639.799 1373.22 646.992 1371.23 656.914C1369.25 666.753 1367.72 673.781 1366.64 677.998L1342.21 773H1298.55L1252.29 591.678H1290.12L1313.31 690.648C1317.36 708.921 1320.3 724.755 1322.12 738.149C1322.61 733.437 1323.73 726.16 1325.47 716.321C1327.29 706.399 1328.98 698.71 1330.55 693.253L1356.97 591.678H1393.31L1419.72 693.253C1420.88 697.8 1422.33 704.746 1424.07 714.089C1425.8 723.432 1427.12 731.452 1428.03 738.149C1428.86 731.7 1430.18 723.68 1432 714.089C1433.82 704.415 1435.48 696.602 1436.96 690.648L1460.03 591.678H1497.86L1451.72 773Z" fill="white"/>
<path d="M1178 720.414V689.408H1244.6V720.414H1178Z" fill="white"/>
<path d="M1155.31 773H1050.88V591.678H1155.31V623.18H1089.33V662.991H1150.72V694.493H1089.33V741.25H1155.31V773Z" fill="white"/>
<path d="M966.791 773V591.678H1005.24V773H966.791Z" fill="white"/>
<path d="M905.027 591.678H943.847L882.207 773H840.287L778.771 591.678H817.591L851.697 699.578C853.599 705.945 855.542 713.386 857.526 721.902C859.593 730.336 860.875 736.206 861.371 739.514C862.281 731.907 865.381 718.595 870.673 699.578L905.027 591.678Z" fill="white"/>
<path d="M764.012 682.091C764.012 712.104 756.57 735.173 741.688 751.296C726.805 767.419 705.473 775.48 677.691 775.48C649.91 775.48 628.578 767.419 613.695 751.296C598.812 735.173 591.371 712.022 591.371 681.843C591.371 651.664 598.812 628.637 613.695 612.762C628.661 596.804 650.076 588.825 677.939 588.825C705.803 588.825 727.094 596.845 741.812 612.886C756.612 628.926 764.012 651.994 764.012 682.091ZM631.679 682.091C631.679 702.348 635.523 717.603 643.213 727.855C650.902 738.108 662.395 743.234 677.691 743.234C708.367 743.234 723.704 722.853 723.704 682.091C723.704 641.246 708.449 620.823 677.939 620.823C662.643 620.823 651.109 625.991 643.337 636.326C635.565 646.579 631.679 661.834 631.679 682.091Z" fill="white"/>
<path d="M436.591 773L392.935 630.745H391.818C393.389 659.684 394.175 678.99 394.175 688.664V773H359.82V591.678H412.158L455.07 730.336H455.814L501.331 591.678H553.669V773H517.826V687.176C517.826 683.124 517.868 678.453 517.95 673.161C518.116 667.869 518.694 653.813 519.687 630.993H518.57L471.813 773H436.591Z" fill="white"/>
</svg>
