<svg width="2147" height="1121" viewBox="0 0 2147 1121" fill="none" xmlns="http://www.w3.org/2000/svg">
<path d="M1663.06 599.678H1719.49C1745.2 599.678 1763.85 603.357 1775.42 610.716C1787.08 617.992 1792.91 629.609 1792.91 645.566C1792.91 656.398 1790.35 665.286 1785.22 672.231C1780.18 679.177 1773.44 683.352 1765.01 684.758V685.998C1776.5 688.561 1784.77 693.357 1789.81 700.385C1794.94 707.413 1797.5 716.756 1797.5 728.414C1797.5 744.951 1791.51 757.849 1779.52 767.109C1767.61 776.37 1751.4 781 1730.9 781H1663.06V599.678ZM1701.51 671.487H1723.83C1734.25 671.487 1741.77 669.875 1746.4 666.65C1751.12 663.426 1753.47 658.093 1753.47 650.651C1753.47 643.706 1750.91 638.745 1745.78 635.769C1740.74 632.709 1732.72 631.18 1721.72 631.18H1701.51V671.487ZM1701.51 701.997V749.25H1726.56C1737.14 749.25 1744.96 747.224 1750 743.173C1755.04 739.121 1757.56 732.92 1757.56 724.569C1757.56 709.521 1746.82 701.997 1725.32 701.997H1701.51Z" fill="black"/>
<path d="M1625.11 781H1520.68V599.678H1625.11V631.18H1559.13V670.991H1620.52V702.493H1559.13V749.25H1625.11V781Z" fill="black"/>
<path d="M1451.72 781H1407.94L1383.39 685.75C1382.48 682.36 1380.91 675.373 1378.67 664.79C1376.52 654.124 1375.28 646.972 1374.95 643.334C1374.46 647.799 1373.22 654.992 1371.23 664.914C1369.25 674.753 1367.72 681.781 1366.64 685.998L1342.21 781H1298.55L1252.29 599.678H1290.12L1313.31 698.648C1317.36 716.921 1320.3 732.755 1322.12 746.149C1322.61 741.437 1323.73 734.16 1325.47 724.321C1327.29 714.399 1328.98 706.71 1330.55 701.253L1356.97 599.678H1393.31L1419.72 701.253C1420.88 705.8 1422.33 712.746 1424.07 722.089C1425.8 731.432 1427.12 739.452 1428.03 746.149C1428.86 739.7 1430.18 731.68 1432 722.089C1433.82 712.415 1435.48 704.602 1436.96 698.648L1460.03 599.678H1497.86L1451.72 781Z" fill="black"/>
<path d="M1178 728.414V697.408H1244.6V728.414H1178Z" fill="black"/>
<path d="M1155.31 781H1050.88V599.678H1155.31V631.18H1089.33V670.991H1150.72V702.493H1089.33V749.25H1155.31V781Z" fill="black"/>
<path d="M966.791 781V599.678H1005.24V781H966.791Z" fill="black"/>
<path d="M905.027 599.678H943.847L882.207 781H840.287L778.771 599.678H817.591L851.697 707.578C853.599 713.945 855.542 721.386 857.526 729.902C859.593 738.336 860.875 744.206 861.371 747.514C862.281 739.907 865.381 726.595 870.673 707.578L905.027 599.678Z" fill="black"/>
<path d="M764.012 690.091C764.012 720.104 756.57 743.173 741.688 759.296C726.805 775.419 705.473 783.48 677.691 783.48C649.91 783.48 628.578 775.419 613.695 759.296C598.812 743.173 591.371 720.022 591.371 689.843C591.371 659.664 598.812 636.637 613.695 620.762C628.661 604.804 650.076 596.825 677.939 596.825C705.803 596.825 727.094 604.845 741.812 620.886C756.612 636.926 764.012 659.994 764.012 690.091ZM631.679 690.091C631.679 710.348 635.523 725.603 643.213 735.855C650.902 746.108 662.395 751.234 677.691 751.234C708.367 751.234 723.704 730.853 723.704 690.091C723.704 649.246 708.449 628.823 677.939 628.823C662.643 628.823 651.109 633.991 643.337 644.326C635.565 654.579 631.679 669.834 631.679 690.091Z" fill="black"/>
<path d="M436.591 781L392.935 638.745H391.818C393.389 667.684 394.175 686.99 394.175 696.664V781H359.82V599.678H412.158L455.07 738.336H455.814L501.331 599.678H553.669V781H517.826V695.176C517.826 691.124 517.868 686.453 517.95 681.161C518.116 675.869 518.694 661.813 519.687 638.993H518.57L471.813 781H436.591Z" fill="black"/>
</svg>
